<?xml version="1.0" encoding="UTF-8" standalone="no"?>
<!DOCTYPE svg PUBLIC "-//W3C//DTD SVG 1.1//EN"
 "http://www.w3.org/Graphics/SVG/1.1/DTD/svg11.dtd">
<!-- Generated by graphviz version 2.47.0 (20210316.0004)
 -->
<!-- Title: dependencies Pages: 1 -->
<svg width="719pt" height="284pt"
 viewBox="0.00 0.00 719.00 284.00" xmlns="http://www.w3.org/2000/svg" xmlns:xlink="http://www.w3.org/1999/xlink">
<g id="graph0" class="graph" transform="scale(1 1) rotate(0) translate(4 280)">
<title>dependencies</title>
<polygon fill="white" stroke="transparent" points="-4,4 -4,-280 715,-280 715,4 -4,4"/>
<text text-anchor="start" x="334.51" y="-42.4" font-family="Times-12" font-weight="bold" font-size="14.00">Legend</text>
<polygon fill="#ffffb3" stroke="transparent" points="121.5,-10 121.5,-30 141.5,-30 141.5,-10 121.5,-10"/>
<text text-anchor="start" x="145.13" y="-15.4" font-family="Times-12" font-size="14.00"> &#160;Declarations</text>
<polygon fill="#8dd3c7" stroke="transparent" points="234.5,-10 234.5,-30 254.5,-30 254.5,-10 234.5,-10"/>
<text text-anchor="start" x="258.23" y="-15.4" font-family="Times-12" font-size="14.00"> &#160;Module</text>
<polygon fill="#80b1d3" stroke="transparent" points="320.5,-10 320.5,-30 340.5,-30 340.5,-10 320.5,-10"/>
<text text-anchor="start" x="344.28" y="-15.4" font-family="Times-12" font-size="14.00"> &#160;Bootstrap</text>
<polygon fill="#fdb462" stroke="transparent" points="417.5,-10 417.5,-30 437.5,-30 437.5,-10 417.5,-10"/>
<text text-anchor="start" x="441.17" y="-15.4" font-family="Times-12" font-size="14.00"> &#160;Providers</text>
<polygon fill="#fb8072" stroke="transparent" points="513.5,-10 513.5,-30 533.5,-30 533.5,-10 513.5,-10"/>
<text text-anchor="start" x="537.23" y="-15.4" font-family="Times-12" font-size="14.00"> &#160;Exports</text>
<g id="clust1" class="cluster">
<title>cluster_AuthenticationModule</title>
<polygon fill="none" stroke="black" stroke-dasharray="1,5" points="8,-70 8,-268 703,-268 703,-70 8,-70"/>
</g>
<g id="clust2" class="cluster">
<title>cluster_AuthenticationModule_declarations</title>
<polygon fill="none" stroke="black" points="228,-78 228,-130 695,-130 695,-78 228,-78"/>
</g>
<g id="clust6" class="cluster">
<title>cluster_AuthenticationModule_imports</title>
<polygon fill="none" stroke="black" points="16,-78 16,-130 220,-130 220,-78 16,-78"/>
</g>
<g id="clust8" class="cluster">
<title>cluster_AuthenticationModule_bootstrap</title>
<polygon fill="none" stroke="black" points="302,-208 302,-260 436,-260 436,-208 302,-208"/>
</g>
<!-- ForgotPasswordComponent -->
<g id="node1" class="node">
<title>ForgotPasswordComponent</title>
<polygon fill="#ffffb3" stroke="black" points="687.32,-122 514.68,-122 514.68,-86 687.32,-86 687.32,-122"/>
<text text-anchor="middle" x="601" y="-99.8" font-family="Times,serif" font-size="14.00">ForgotPasswordComponent</text>
</g>
<!-- AuthenticationModule -->
<g id="node4" class="node">
<title>AuthenticationModule</title>
<polygon fill="#8dd3c7" stroke="black" points="440.25,-187 437.25,-191 416.25,-191 413.25,-187 297.75,-187 297.75,-151 440.25,-151 440.25,-187"/>
<text text-anchor="middle" x="369" y="-164.8" font-family="Times,serif" font-size="14.00">AuthenticationModule</text>
</g>
<!-- ForgotPasswordComponent&#45;&gt;AuthenticationModule -->
<g id="edge1" class="edge">
<title>ForgotPasswordComponent&#45;&gt;AuthenticationModule</title>
<path fill="none" stroke="black" d="M601,-122.11C601,-141.34 601,-169 601,-169 601,-169 450.5,-169 450.5,-169"/>
<polygon fill="black" stroke="black" points="450.5,-165.5 440.5,-169 450.5,-172.5 450.5,-165.5"/>
</g>
<!-- LoginComponent -->
<g id="node2" class="node">
<title>LoginComponent</title>
<polygon fill="#ffffb3" stroke="black" points="496.28,-122 381.72,-122 381.72,-86 496.28,-86 496.28,-122"/>
<text text-anchor="middle" x="439" y="-99.8" font-family="Times,serif" font-size="14.00">LoginComponent</text>
</g>
<!-- LoginComponent&#45;&gt;AuthenticationModule -->
<g id="edge2" class="edge">
<title>LoginComponent&#45;&gt;AuthenticationModule</title>
<path fill="none" stroke="black" d="M410.99,-122.11C410.99,-122.11 410.99,-140.99 410.99,-140.99"/>
<polygon fill="black" stroke="black" points="407.49,-140.99 410.99,-150.99 414.49,-140.99 407.49,-140.99"/>
</g>
<!-- RegisterComponent -->
<g id="node3" class="node">
<title>RegisterComponent</title>
<polygon fill="#ffffb3" stroke="black" points="363.98,-122 236.02,-122 236.02,-86 363.98,-86 363.98,-122"/>
<text text-anchor="middle" x="300" y="-99.8" font-family="Times,serif" font-size="14.00">RegisterComponent</text>
</g>
<!-- RegisterComponent&#45;&gt;AuthenticationModule -->
<g id="edge3" class="edge">
<title>RegisterComponent&#45;&gt;AuthenticationModule</title>
<path fill="none" stroke="black" d="M330.81,-122.11C330.81,-122.11 330.81,-140.99 330.81,-140.99"/>
<polygon fill="black" stroke="black" points="327.31,-140.99 330.81,-150.99 334.31,-140.99 327.31,-140.99"/>
</g>
<!-- LoginComponent  -->
<g id="node6" class="node">
<title>LoginComponent </title>
<polygon fill="#80b1d3" stroke="black" points="428.28,-252 309.72,-252 309.72,-216 428.28,-216 428.28,-252"/>
<text text-anchor="middle" x="369" y="-229.8" font-family="Times,serif" font-size="14.00">LoginComponent </text>
</g>
<!-- AuthenticationModule&#45;&gt;LoginComponent  -->
<g id="edge5" class="edge">
<title>AuthenticationModule&#45;&gt;LoginComponent </title>
<path fill="none" stroke="black" stroke-dasharray="1,5" d="M369,-187.11C369,-187.11 369,-205.99 369,-205.99"/>
<polygon fill="black" stroke="black" points="365.5,-205.99 369,-215.99 372.5,-205.99 365.5,-205.99"/>
</g>
<!-- AuthenticationRoutingModule -->
<g id="node5" class="node">
<title>AuthenticationRoutingModule</title>
<polygon fill="#8dd3c7" stroke="black" points="211.87,-122 208.87,-126 187.87,-126 184.87,-122 24.13,-122 24.13,-86 211.87,-86 211.87,-122"/>
<text text-anchor="middle" x="118" y="-99.8" font-family="Times,serif" font-size="14.00">AuthenticationRoutingModule</text>
</g>
<!-- AuthenticationRoutingModule&#45;&gt;AuthenticationModule -->
<g id="edge4" class="edge">
<title>AuthenticationRoutingModule&#45;&gt;AuthenticationModule</title>
<path fill="none" stroke="black" d="M118,-122.11C118,-141.34 118,-169 118,-169 118,-169 287.74,-169 287.74,-169"/>
<polygon fill="black" stroke="black" points="287.74,-172.5 297.74,-169 287.74,-165.5 287.74,-172.5"/>
</g>
</g>
</svg>
