<?xml version="1.0" encoding="UTF-8" standalone="no"?>
<!DOCTYPE svg PUBLIC "-//W3C//DTD SVG 1.1//EN"
 "http://www.w3.org/Graphics/SVG/1.1/DTD/svg11.dtd">
<!-- Generated by graphviz version 2.47.0 (20210316.0004)
 -->
<!-- Title: dependencies Pages: 1 -->
<svg width="504pt" height="211pt"
 viewBox="0.00 0.00 504.00 211.00" xmlns="http://www.w3.org/2000/svg" xmlns:xlink="http://www.w3.org/1999/xlink">
<g id="graph0" class="graph" transform="scale(1 1) rotate(0) translate(4 207)">
<title>dependencies</title>
<polygon fill="white" stroke="transparent" points="-4,4 -4,-207 500,-207 500,4 -4,4"/>
<text text-anchor="start" x="227.01" y="-42.4" font-family="Times-12" font-weight="bold" font-size="14.00">Legend</text>
<polygon fill="#ffffb3" stroke="transparent" points="14,-10 14,-30 34,-30 34,-10 14,-10"/>
<text text-anchor="start" x="37.63" y="-15.4" font-family="Times-12" font-size="14.00"> &#160;Declarations</text>
<polygon fill="#8dd3c7" stroke="transparent" points="127,-10 127,-30 147,-30 147,-10 127,-10"/>
<text text-anchor="start" x="150.73" y="-15.4" font-family="Times-12" font-size="14.00"> &#160;Module</text>
<polygon fill="#80b1d3" stroke="transparent" points="213,-10 213,-30 233,-30 233,-10 213,-10"/>
<text text-anchor="start" x="236.78" y="-15.4" font-family="Times-12" font-size="14.00"> &#160;Bootstrap</text>
<polygon fill="#fdb462" stroke="transparent" points="310,-10 310,-30 330,-30 330,-10 310,-10"/>
<text text-anchor="start" x="333.67" y="-15.4" font-family="Times-12" font-size="14.00"> &#160;Providers</text>
<polygon fill="#fb8072" stroke="transparent" points="406,-10 406,-30 426,-30 426,-10 406,-10"/>
<text text-anchor="start" x="429.73" y="-15.4" font-family="Times-12" font-size="14.00"> &#160;Exports</text>
<g id="clust1" class="cluster">
<title>cluster_VendorsModule</title>
<polygon fill="none" stroke="black" stroke-dasharray="1,5" points="70.5,-70 70.5,-195 425.5,-195 425.5,-70 70.5,-70"/>
</g>
<g id="clust2" class="cluster">
<title>cluster_VendorsModule_declarations</title>
<polygon fill="none" stroke="black" points="78.5,-78 78.5,-130 417.5,-130 417.5,-78 78.5,-78"/>
</g>
<!-- CreateVendorComponent -->
<g id="node1" class="node">
<title>CreateVendorComponent</title>
<polygon fill="#ffffb3" stroke="black" points="409.35,-122 249.65,-122 249.65,-86 409.35,-86 409.35,-122"/>
<text text-anchor="middle" x="329.5" y="-99.8" font-family="Times,serif" font-size="14.00">CreateVendorComponent</text>
</g>
<!-- VendorsModule -->
<g id="node3" class="node">
<title>VendorsModule</title>
<polygon fill="#8dd3c7" stroke="black" points="297.98,-187 294.98,-191 273.98,-191 270.98,-187 191.02,-187 191.02,-151 297.98,-151 297.98,-187"/>
<text text-anchor="middle" x="244.5" y="-164.8" font-family="Times,serif" font-size="14.00">VendorsModule</text>
</g>
<!-- CreateVendorComponent&#45;&gt;VendorsModule -->
<g id="edge1" class="edge">
<title>CreateVendorComponent&#45;&gt;VendorsModule</title>
<path fill="none" stroke="black" d="M273.78,-122.11C273.78,-122.11 273.78,-140.99 273.78,-140.99"/>
<polygon fill="black" stroke="black" points="270.28,-140.99 273.78,-150.99 277.28,-140.99 270.28,-140.99"/>
</g>
<!-- ListVendorComponent -->
<g id="node2" class="node">
<title>ListVendorComponent</title>
<polygon fill="#ffffb3" stroke="black" points="232.09,-122 86.91,-122 86.91,-86 232.09,-86 232.09,-122"/>
<text text-anchor="middle" x="159.5" y="-99.8" font-family="Times,serif" font-size="14.00">ListVendorComponent</text>
</g>
<!-- ListVendorComponent&#45;&gt;VendorsModule -->
<g id="edge2" class="edge">
<title>ListVendorComponent&#45;&gt;VendorsModule</title>
<path fill="none" stroke="black" d="M211.53,-122.11C211.53,-122.11 211.53,-140.99 211.53,-140.99"/>
<polygon fill="black" stroke="black" points="208.03,-140.99 211.53,-150.99 215.03,-140.99 208.03,-140.99"/>
</g>
</g>
</svg>
