<?xml version="1.0" encoding="UTF-8" standalone="no"?>
<!DOCTYPE svg PUBLIC "-//W3C//DTD SVG 1.1//EN"
 "http://www.w3.org/Graphics/SVG/1.1/DTD/svg11.dtd">
<!-- Generated by graphviz version 2.47.0 (20210316.0004)
 -->
<!-- Title: dependencies Pages: 1 -->
<svg width="504pt" height="211pt"
 viewBox="0.00 0.00 504.00 211.00" xmlns="http://www.w3.org/2000/svg" xmlns:xlink="http://www.w3.org/1999/xlink">
<g id="graph0" class="graph" transform="scale(1 1) rotate(0) translate(4 207)">
<title>dependencies</title>
<polygon fill="white" stroke="transparent" points="-4,4 -4,-207 500,-207 500,4 -4,4"/>
<text text-anchor="start" x="227.01" y="-42.4" font-family="Times-12" font-weight="bold" font-size="14.00">Legend</text>
<polygon fill="#ffffb3" stroke="transparent" points="14,-10 14,-30 34,-30 34,-10 14,-10"/>
<text text-anchor="start" x="37.63" y="-15.4" font-family="Times-12" font-size="14.00"> &#160;Declarations</text>
<polygon fill="#8dd3c7" stroke="transparent" points="127,-10 127,-30 147,-30 147,-10 127,-10"/>
<text text-anchor="start" x="150.73" y="-15.4" font-family="Times-12" font-size="14.00"> &#160;Module</text>
<polygon fill="#80b1d3" stroke="transparent" points="213,-10 213,-30 233,-30 233,-10 213,-10"/>
<text text-anchor="start" x="236.78" y="-15.4" font-family="Times-12" font-size="14.00"> &#160;Bootstrap</text>
<polygon fill="#fdb462" stroke="transparent" points="310,-10 310,-30 330,-30 330,-10 310,-10"/>
<text text-anchor="start" x="333.67" y="-15.4" font-family="Times-12" font-size="14.00"> &#160;Providers</text>
<polygon fill="#fb8072" stroke="transparent" points="406,-10 406,-30 426,-30 426,-10 406,-10"/>
<text text-anchor="start" x="429.73" y="-15.4" font-family="Times-12" font-size="14.00"> &#160;Exports</text>
<g id="clust1" class="cluster">
<title>cluster_SubmissionsModule</title>
<polygon fill="none" stroke="black" stroke-dasharray="1,5" points="47,-70 47,-195 449,-195 449,-70 47,-70"/>
</g>
<g id="clust2" class="cluster">
<title>cluster_SubmissionsModule_declarations</title>
<polygon fill="none" stroke="black" points="55,-78 55,-130 441,-130 441,-78 55,-78"/>
</g>
<!-- CreateSubmissionComponent -->
<g id="node1" class="node">
<title>CreateSubmissionComponent</title>
<polygon fill="#ffffb3" stroke="black" points="432.71,-122 249.29,-122 249.29,-86 432.71,-86 432.71,-122"/>
<text text-anchor="middle" x="341" y="-99.8" font-family="Times,serif" font-size="14.00">CreateSubmissionComponent</text>
</g>
<!-- SubmissionsModule -->
<g id="node3" class="node">
<title>SubmissionsModule</title>
<polygon fill="#8dd3c7" stroke="black" points="309.34,-187 306.34,-191 285.34,-191 282.34,-187 178.66,-187 178.66,-151 309.34,-151 309.34,-187"/>
<text text-anchor="middle" x="244" y="-164.8" font-family="Times,serif" font-size="14.00">SubmissionsModule</text>
</g>
<!-- CreateSubmissionComponent&#45;&gt;SubmissionsModule -->
<g id="edge1" class="edge">
<title>CreateSubmissionComponent&#45;&gt;SubmissionsModule</title>
<path fill="none" stroke="black" d="M279.28,-122.11C279.28,-122.11 279.28,-140.99 279.28,-140.99"/>
<polygon fill="black" stroke="black" points="275.78,-140.99 279.28,-150.99 282.78,-140.99 275.78,-140.99"/>
</g>
<!-- ListSubmissionComponent -->
<g id="node2" class="node">
<title>ListSubmissionComponent</title>
<polygon fill="#ffffb3" stroke="black" points="231.46,-122 62.54,-122 62.54,-86 231.46,-86 231.46,-122"/>
<text text-anchor="middle" x="147" y="-99.8" font-family="Times,serif" font-size="14.00">ListSubmissionComponent</text>
</g>
<!-- ListSubmissionComponent&#45;&gt;SubmissionsModule -->
<g id="edge2" class="edge">
<title>ListSubmissionComponent&#45;&gt;SubmissionsModule</title>
<path fill="none" stroke="black" d="M205.03,-122.11C205.03,-122.11 205.03,-140.99 205.03,-140.99"/>
<polygon fill="black" stroke="black" points="201.53,-140.99 205.03,-150.99 208.53,-140.99 201.53,-140.99"/>
</g>
</g>
</svg>
