<?xml version="1.0" encoding="UTF-8" standalone="no"?>
<!DOCTYPE svg PUBLIC "-//W3C//DTD SVG 1.1//EN"
 "http://www.w3.org/Graphics/SVG/1.1/DTD/svg11.dtd">
<!-- Generated by graphviz version 2.47.0 (20210316.0004)
 -->
<!-- Title: dependencies Pages: 1 -->
<svg width="504pt" height="284pt"
 viewBox="0.00 0.00 504.00 284.00" xmlns="http://www.w3.org/2000/svg" xmlns:xlink="http://www.w3.org/1999/xlink">
<g id="graph0" class="graph" transform="scale(1 1) rotate(0) translate(4 280)">
<title>dependencies</title>
<polygon fill="white" stroke="transparent" points="-4,4 -4,-280 500,-280 500,4 -4,4"/>
<text text-anchor="start" x="227.01" y="-42.4" font-family="Times-12" font-weight="bold" font-size="14.00">Legend</text>
<polygon fill="#ffffb3" stroke="transparent" points="14,-10 14,-30 34,-30 34,-10 14,-10"/>
<text text-anchor="start" x="37.63" y="-15.4" font-family="Times-12" font-size="14.00"> &#160;Declarations</text>
<polygon fill="#8dd3c7" stroke="transparent" points="127,-10 127,-30 147,-30 147,-10 127,-10"/>
<text text-anchor="start" x="150.73" y="-15.4" font-family="Times-12" font-size="14.00"> &#160;Module</text>
<polygon fill="#80b1d3" stroke="transparent" points="213,-10 213,-30 233,-30 233,-10 213,-10"/>
<text text-anchor="start" x="236.78" y="-15.4" font-family="Times-12" font-size="14.00"> &#160;Bootstrap</text>
<polygon fill="#fdb462" stroke="transparent" points="310,-10 310,-30 330,-30 330,-10 310,-10"/>
<text text-anchor="start" x="333.67" y="-15.4" font-family="Times-12" font-size="14.00"> &#160;Providers</text>
<polygon fill="#fb8072" stroke="transparent" points="406,-10 406,-30 426,-30 426,-10 406,-10"/>
<text text-anchor="start" x="429.73" y="-15.4" font-family="Times-12" font-size="14.00"> &#160;Exports</text>
<g id="clust1" class="cluster">
<title>cluster_AppModule</title>
<polygon fill="none" stroke="black" stroke-dasharray="1,5" points="22.5,-70 22.5,-268 473.5,-268 473.5,-70 22.5,-70"/>
</g>
<g id="clust2" class="cluster">
<title>cluster_AppModule_declarations</title>
<polygon fill="none" stroke="black" points="343.5,-78 343.5,-130 465.5,-130 465.5,-78 343.5,-78"/>
</g>
<g id="clust6" class="cluster">
<title>cluster_AppModule_bootstrap</title>
<polygon fill="none" stroke="black" points="201.5,-208 201.5,-260 325.5,-260 325.5,-208 201.5,-208"/>
</g>
<g id="clust4" class="cluster">
<title>cluster_AppModule_imports</title>
<polygon fill="none" stroke="black" points="30.5,-78 30.5,-130 335.5,-130 335.5,-78 30.5,-78"/>
</g>
<!-- AppComponent -->
<g id="node1" class="node">
<title>AppComponent</title>
<polygon fill="#ffffb3" stroke="black" points="457.44,-122 351.56,-122 351.56,-86 457.44,-86 457.44,-122"/>
<text text-anchor="middle" x="404.5" y="-99.8" font-family="Times,serif" font-size="14.00">AppComponent</text>
</g>
<!-- AppModule -->
<g id="node2" class="node">
<title>AppModule</title>
<polygon fill="#8dd3c7" stroke="black" points="305.16,-187 302.16,-191 281.16,-191 278.16,-187 221.84,-187 221.84,-151 305.16,-151 305.16,-187"/>
<text text-anchor="middle" x="263.5" y="-164.8" font-family="Times,serif" font-size="14.00">AppModule</text>
</g>
<!-- AppComponent&#45;&gt;AppModule -->
<g id="edge1" class="edge">
<title>AppComponent&#45;&gt;AppModule</title>
<path fill="none" stroke="black" d="M404.5,-122.11C404.5,-141.34 404.5,-169 404.5,-169 404.5,-169 315.42,-169 315.42,-169"/>
<polygon fill="black" stroke="black" points="315.42,-165.5 305.42,-169 315.42,-172.5 315.42,-165.5"/>
</g>
<!-- AppComponent  -->
<g id="node5" class="node">
<title>AppComponent </title>
<polygon fill="#80b1d3" stroke="black" points="317.94,-252 209.06,-252 209.06,-216 317.94,-216 317.94,-252"/>
<text text-anchor="middle" x="263.5" y="-229.8" font-family="Times,serif" font-size="14.00">AppComponent </text>
</g>
<!-- AppModule&#45;&gt;AppComponent  -->
<g id="edge5" class="edge">
<title>AppModule&#45;&gt;AppComponent </title>
<path fill="none" stroke="black" stroke-dasharray="1,5" d="M263.5,-187.11C263.5,-187.11 263.5,-205.99 263.5,-205.99"/>
<polygon fill="black" stroke="black" points="260,-205.99 263.5,-215.99 267,-205.99 260,-205.99"/>
</g>
<!-- AppRoutingModule -->
<g id="node3" class="node">
<title>AppRoutingModule</title>
<polygon fill="#8dd3c7" stroke="black" points="327.77,-122 324.77,-126 303.77,-126 300.77,-122 199.23,-122 199.23,-86 327.77,-86 327.77,-122"/>
<text text-anchor="middle" x="263.5" y="-99.8" font-family="Times,serif" font-size="14.00">AppRoutingModule</text>
</g>
<!-- AppRoutingModule&#45;&gt;AppModule -->
<g id="edge2" class="edge">
<title>AppRoutingModule&#45;&gt;AppModule</title>
<path fill="none" stroke="black" d="M249.56,-122.11C249.56,-122.11 249.56,-140.99 249.56,-140.99"/>
<polygon fill="black" stroke="black" points="246.06,-140.99 249.56,-150.99 253.06,-140.99 246.06,-140.99"/>
</g>
<!-- AppRoutingModule&#45;&gt;AppModule -->
<g id="edge3" class="edge">
<title>AppRoutingModule&#45;&gt;AppModule</title>
<path fill="none" stroke="black" d="M277.44,-122.11C277.44,-122.11 277.44,-140.99 277.44,-140.99"/>
<polygon fill="black" stroke="black" points="273.94,-140.99 277.44,-150.99 280.94,-140.99 273.94,-140.99"/>
</g>
<!-- AuthenticationModule -->
<g id="node4" class="node">
<title>AuthenticationModule</title>
<polygon fill="#8dd3c7" stroke="black" points="180.75,-122 177.75,-126 156.75,-126 153.75,-122 38.25,-122 38.25,-86 180.75,-86 180.75,-122"/>
<text text-anchor="middle" x="109.5" y="-99.8" font-family="Times,serif" font-size="14.00">AuthenticationModule</text>
</g>
<!-- AuthenticationModule&#45;&gt;AppModule -->
<g id="edge4" class="edge">
<title>AuthenticationModule&#45;&gt;AppModule</title>
<path fill="none" stroke="black" d="M109.5,-122.11C109.5,-141.34 109.5,-169 109.5,-169 109.5,-169 211.83,-169 211.83,-169"/>
<polygon fill="black" stroke="black" points="211.83,-172.5 221.83,-169 211.83,-165.5 211.83,-172.5"/>
</g>
</g>
</svg>
