<?xml version="1.0" encoding="UTF-8" standalone="no"?>
<!DOCTYPE svg PUBLIC "-//W3C//DTD SVG 1.1//EN"
 "http://www.w3.org/Graphics/SVG/1.1/DTD/svg11.dtd">
<!-- Generated by graphviz version 2.47.0 (20210316.0004)
 -->
<!-- Title: dependencies Pages: 1 -->
<svg width="2682pt" height="355pt"
 viewBox="0.00 0.00 2682.00 355.00" xmlns="http://www.w3.org/2000/svg" xmlns:xlink="http://www.w3.org/1999/xlink">
<g id="graph0" class="graph" transform="scale(1 1) rotate(0) translate(4 351)">
<title>dependencies</title>
<polygon fill="white" stroke="transparent" points="-4,4 -4,-351 2678,-351 2678,4 -4,4"/>
<text text-anchor="start" x="1316.01" y="-42.4" font-family="Times-12" font-weight="bold" font-size="14.00">Legend</text>
<polygon fill="#ffffb3" stroke="transparent" points="1103,-10 1103,-30 1123,-30 1123,-10 1103,-10"/>
<text text-anchor="start" x="1126.63" y="-15.4" font-family="Times-12" font-size="14.00"> &#160;Declarations</text>
<polygon fill="#8dd3c7" stroke="transparent" points="1216,-10 1216,-30 1236,-30 1236,-10 1216,-10"/>
<text text-anchor="start" x="1239.73" y="-15.4" font-family="Times-12" font-size="14.00"> &#160;Module</text>
<polygon fill="#80b1d3" stroke="transparent" points="1302,-10 1302,-30 1322,-30 1322,-10 1302,-10"/>
<text text-anchor="start" x="1325.78" y="-15.4" font-family="Times-12" font-size="14.00"> &#160;Bootstrap</text>
<polygon fill="#fdb462" stroke="transparent" points="1399,-10 1399,-30 1419,-30 1419,-10 1399,-10"/>
<text text-anchor="start" x="1422.67" y="-15.4" font-family="Times-12" font-size="14.00"> &#160;Providers</text>
<polygon fill="#fb8072" stroke="transparent" points="1495,-10 1495,-30 1515,-30 1515,-10 1495,-10"/>
<text text-anchor="start" x="1518.73" y="-15.4" font-family="Times-12" font-size="14.00"> &#160;Exports</text>
<g id="clust1" class="cluster">
<title>cluster_AppRoutingModule</title>
<polygon fill="none" stroke="black" stroke-dasharray="1,5" points="8,-70 8,-271 218,-271 218,-70 8,-70"/>
</g>
<g id="clust3" class="cluster">
<title>cluster_AppRoutingModule_imports</title>
<polygon fill="none" stroke="black" points="16,-78 16,-130 210,-130 210,-78 16,-78"/>
</g>
<g id="clust4" class="cluster">
<title>cluster_AppRoutingModule_exports</title>
<polygon fill="none" stroke="black" points="54,-211 54,-263 172,-263 172,-211 54,-211"/>
</g>
<g id="clust7" class="cluster">
<title>cluster_AppModule</title>
<polygon fill="none" stroke="black" stroke-dasharray="1,5" points="226,-138 226,-339 494,-339 494,-138 226,-138"/>
</g>
<g id="clust8" class="cluster">
<title>cluster_AppModule_declarations</title>
<polygon fill="none" stroke="black" points="364,-146 364,-198 486,-198 486,-146 364,-146"/>
</g>
<g id="clust10" class="cluster">
<title>cluster_AppModule_imports</title>
<polygon fill="none" stroke="black" points="234,-146 234,-198 356,-198 356,-146 234,-146"/>
</g>
<g id="clust12" class="cluster">
<title>cluster_AppModule_bootstrap</title>
<polygon fill="none" stroke="black" points="234,-279 234,-331 358,-331 358,-279 234,-279"/>
</g>
<g id="clust14" class="cluster">
<title>cluster_AuthenticationModule</title>
<polygon fill="none" stroke="black" stroke-dasharray="1,5" points="502,-70 502,-198 1121,-198 1121,-70 502,-70"/>
</g>
<g id="clust15" class="cluster">
<title>cluster_AuthenticationModule_declarations</title>
<polygon fill="none" stroke="black" points="510,-78 510,-130 977,-130 977,-78 510,-78"/>
</g>
<g id="clust19" class="cluster">
<title>cluster_AuthenticationModule_imports</title>
<polygon fill="none" stroke="black" points="985,-78 985,-130 1113,-130 1113,-78 985,-78"/>
</g>
<g id="clust23" class="cluster">
<title>cluster_JobsModule</title>
<polygon fill="none" stroke="black" stroke-dasharray="1,5" points="1251,-70 1251,-198 1561,-198 1561,-70 1251,-70"/>
</g>
<g id="clust24" class="cluster">
<title>cluster_JobsModule_declarations</title>
<polygon fill="none" stroke="black" points="1259,-78 1259,-130 1553,-130 1553,-78 1259,-78"/>
</g>
<g id="clust31" class="cluster">
<title>cluster_SharedModule</title>
<polygon fill="none" stroke="black" stroke-dasharray="1,5" points="1129,-146 1129,-198 1243,-198 1243,-146 1129,-146"/>
</g>
<g id="clust37" class="cluster">
<title>cluster_SubmissionsModule</title>
<polygon fill="none" stroke="black" stroke-dasharray="1,5" points="1569,-70 1569,-198 1971,-198 1971,-70 1569,-70"/>
</g>
<g id="clust38" class="cluster">
<title>cluster_SubmissionsModule_declarations</title>
<polygon fill="none" stroke="black" points="1577,-78 1577,-130 1963,-130 1963,-78 1577,-78"/>
</g>
<g id="clust45" class="cluster">
<title>cluster_UsersModule</title>
<polygon fill="none" stroke="black" stroke-dasharray="1,5" points="1979,-70 1979,-198 2303,-198 2303,-70 1979,-70"/>
</g>
<g id="clust46" class="cluster">
<title>cluster_UsersModule_declarations</title>
<polygon fill="none" stroke="black" points="1987,-78 1987,-130 2295,-130 2295,-78 1987,-78"/>
</g>
<g id="clust53" class="cluster">
<title>cluster_VendorsModule</title>
<polygon fill="none" stroke="black" stroke-dasharray="1,5" points="2311,-70 2311,-198 2666,-198 2666,-70 2311,-70"/>
</g>
<g id="clust54" class="cluster">
<title>cluster_VendorsModule_declarations</title>
<polygon fill="none" stroke="black" points="2319,-78 2319,-130 2658,-130 2658,-78 2319,-78"/>
</g>
<!-- RouterModule.forRoot(args) -->
<g id="node1" class="node">
<title>RouterModule.forRoot(args)</title>
<polygon fill="#8dd3c7" stroke="black" points="201.84,-122 198.84,-126 177.84,-126 174.84,-122 24.16,-122 24.16,-86 201.84,-86 201.84,-122"/>
<text text-anchor="middle" x="113" y="-99.8" font-family="Times,serif" font-size="14.00">RouterModule.forRoot(args)</text>
</g>
<!-- AppRoutingModule -->
<g id="node2" class="node">
<title>AppRoutingModule</title>
<polygon fill="#8dd3c7" stroke="black" points="177.27,-190 174.27,-194 153.27,-194 150.27,-190 48.73,-190 48.73,-154 177.27,-154 177.27,-190"/>
<text text-anchor="middle" x="113" y="-167.8" font-family="Times,serif" font-size="14.00">AppRoutingModule</text>
</g>
<!-- RouterModule.forRoot(args)&#45;&gt;AppRoutingModule -->
<g id="edge1" class="edge">
<title>RouterModule.forRoot(args)&#45;&gt;AppRoutingModule</title>
<path fill="none" stroke="black" d="M122.2,-122.22C122.2,-122.22 122.2,-143.73 122.2,-143.73"/>
<polygon fill="black" stroke="black" points="118.7,-143.73 122.2,-153.73 125.7,-143.73 118.7,-143.73"/>
</g>
<!-- RouterModule.forRoot(args)&#45;&gt;AppRoutingModule -->
<g id="edge7" class="edge">
<title>RouterModule.forRoot(args)&#45;&gt;AppRoutingModule</title>
<path fill="none" stroke="black" d="M103.8,-122.22C103.8,-122.22 103.8,-143.73 103.8,-143.73"/>
<polygon fill="black" stroke="black" points="100.3,-143.73 103.8,-153.73 107.3,-143.73 100.3,-143.73"/>
</g>
<!-- RouterModule.forRoot(args)&#45;&gt;AppRoutingModule -->
<g id="edge13" class="edge">
<title>RouterModule.forRoot(args)&#45;&gt;AppRoutingModule</title>
<path fill="none" stroke="black" d="M140.59,-122.22C140.59,-122.22 140.59,-143.73 140.59,-143.73"/>
<polygon fill="black" stroke="black" points="137.09,-143.73 140.59,-153.73 144.09,-143.73 137.09,-143.73"/>
</g>
<!-- RouterModule.forRoot(args)&#45;&gt;AppRoutingModule -->
<g id="edge19" class="edge">
<title>RouterModule.forRoot(args)&#45;&gt;AppRoutingModule</title>
<path fill="none" stroke="black" d="M85.41,-122.22C85.41,-122.22 85.41,-143.73 85.41,-143.73"/>
<polygon fill="black" stroke="black" points="81.91,-143.73 85.41,-153.73 88.91,-143.73 81.91,-143.73"/>
</g>
<!-- RouterModule.forRoot(args)&#45;&gt;AppRoutingModule -->
<g id="edge24" class="edge">
<title>RouterModule.forRoot(args)&#45;&gt;AppRoutingModule</title>
<path fill="none" stroke="black" d="M158.99,-122.22C158.99,-122.22 158.99,-143.73 158.99,-143.73"/>
<polygon fill="black" stroke="black" points="155.49,-143.73 158.99,-153.73 162.49,-143.73 155.49,-143.73"/>
</g>
<!-- RouterModule.forRoot(args)&#45;&gt;AppRoutingModule -->
<g id="edge29" class="edge">
<title>RouterModule.forRoot(args)&#45;&gt;AppRoutingModule</title>
<path fill="none" stroke="black" d="M67.01,-122.22C67.01,-122.22 67.01,-143.73 67.01,-143.73"/>
<polygon fill="black" stroke="black" points="63.51,-143.73 67.01,-153.73 70.51,-143.73 63.51,-143.73"/>
</g>
<!-- RouterModule  -->
<g id="node3" class="node">
<title>RouterModule </title>
<polygon fill="#fb8072" stroke="black" points="163.65,-255 62.35,-255 62.35,-219 163.65,-219 163.65,-255"/>
<text text-anchor="middle" x="113" y="-232.8" font-family="Times,serif" font-size="14.00">RouterModule </text>
</g>
<!-- AppRoutingModule&#45;&gt;RouterModule  -->
<g id="edge2" class="edge">
<title>AppRoutingModule&#45;&gt;RouterModule </title>
<path fill="none" stroke="black" stroke-dasharray="5,2" d="M149.13,-190.11C149.13,-190.11 149.13,-208.99 149.13,-208.99"/>
<polygon fill="black" stroke="black" points="145.63,-208.99 149.13,-218.99 152.63,-208.99 145.63,-208.99"/>
</g>
<!-- AppRoutingModule&#45;&gt;RouterModule  -->
<g id="edge8" class="edge">
<title>AppRoutingModule&#45;&gt;RouterModule </title>
<path fill="none" stroke="black" stroke-dasharray="5,2" d="M134.68,-190.11C134.68,-190.11 134.68,-208.99 134.68,-208.99"/>
<polygon fill="black" stroke="black" points="131.18,-208.99 134.68,-218.99 138.18,-208.99 131.18,-208.99"/>
</g>
<!-- AppRoutingModule&#45;&gt;RouterModule  -->
<g id="edge14" class="edge">
<title>AppRoutingModule&#45;&gt;RouterModule </title>
<path fill="none" stroke="black" stroke-dasharray="5,2" d="M76.87,-190.11C76.87,-190.11 76.87,-208.99 76.87,-208.99"/>
<polygon fill="black" stroke="black" points="73.37,-208.99 76.87,-218.99 80.37,-208.99 73.37,-208.99"/>
</g>
<!-- AppRoutingModule&#45;&gt;RouterModule  -->
<g id="edge20" class="edge">
<title>AppRoutingModule&#45;&gt;RouterModule </title>
<path fill="none" stroke="black" stroke-dasharray="5,2" d="M105.77,-190.11C105.77,-190.11 105.77,-208.99 105.77,-208.99"/>
<polygon fill="black" stroke="black" points="102.27,-208.99 105.77,-218.99 109.27,-208.99 102.27,-208.99"/>
</g>
<!-- AppRoutingModule&#45;&gt;RouterModule  -->
<g id="edge25" class="edge">
<title>AppRoutingModule&#45;&gt;RouterModule </title>
<path fill="none" stroke="black" stroke-dasharray="5,2" d="M120.23,-190.11C120.23,-190.11 120.23,-208.99 120.23,-208.99"/>
<polygon fill="black" stroke="black" points="116.73,-208.99 120.23,-218.99 123.73,-208.99 116.73,-208.99"/>
</g>
<!-- AppRoutingModule&#45;&gt;RouterModule  -->
<g id="edge30" class="edge">
<title>AppRoutingModule&#45;&gt;RouterModule </title>
<path fill="none" stroke="black" stroke-dasharray="5,2" d="M91.32,-190.11C91.32,-190.11 91.32,-208.99 91.32,-208.99"/>
<polygon fill="black" stroke="black" points="87.82,-208.99 91.32,-218.99 94.82,-208.99 87.82,-208.99"/>
</g>
<!-- AppModule -->
<g id="node5" class="node">
<title>AppModule</title>
<polygon fill="#8dd3c7" stroke="black" points="336.66,-255 333.66,-259 312.66,-259 309.66,-255 253.34,-255 253.34,-219 336.66,-219 336.66,-255"/>
<text text-anchor="middle" x="295" y="-232.8" font-family="Times,serif" font-size="14.00">AppModule</text>
</g>
<!-- AppRoutingModule&#45;&gt;AppModule -->
<g id="edge5" class="edge">
<title>AppRoutingModule&#45;&gt;AppModule</title>
<path fill="none" stroke="black" d="M170.48,-190.11C170.48,-209.34 170.48,-237 170.48,-237 170.48,-237 243.19,-237 243.19,-237"/>
<polygon fill="black" stroke="black" points="243.19,-240.5 253.19,-237 243.19,-233.5 243.19,-240.5"/>
</g>
<!-- AppComponent -->
<g id="node4" class="node">
<title>AppComponent</title>
<polygon fill="#ffffb3" stroke="black" points="477.94,-190 372.06,-190 372.06,-154 477.94,-154 477.94,-190"/>
<text text-anchor="middle" x="425" y="-167.8" font-family="Times,serif" font-size="14.00">AppComponent</text>
</g>
<!-- AppComponent&#45;&gt;AppModule -->
<g id="edge3" class="edge">
<title>AppComponent&#45;&gt;AppModule</title>
<path fill="none" stroke="black" d="M425,-190.11C425,-209.34 425,-237 425,-237 425,-237 346.85,-237 346.85,-237"/>
<polygon fill="black" stroke="black" points="346.85,-233.5 336.85,-237 346.85,-240.5 346.85,-233.5"/>
</g>
<!-- AppComponent  -->
<g id="node7" class="node">
<title>AppComponent </title>
<polygon fill="#80b1d3" stroke="black" points="350.44,-323 241.56,-323 241.56,-287 350.44,-287 350.44,-323"/>
<text text-anchor="middle" x="296" y="-300.8" font-family="Times,serif" font-size="14.00">AppComponent </text>
</g>
<!-- AppModule&#45;&gt;AppComponent  -->
<g id="edge6" class="edge">
<title>AppModule&#45;&gt;AppComponent </title>
<path fill="none" stroke="black" stroke-dasharray="1,5" d="M295,-255.22C295,-255.22 295,-276.73 295,-276.73"/>
<polygon fill="black" stroke="black" points="291.5,-276.73 295,-286.73 298.5,-276.73 291.5,-276.73"/>
</g>
<!-- BrowserModule -->
<g id="node6" class="node">
<title>BrowserModule</title>
<polygon fill="#8dd3c7" stroke="black" points="348.47,-190 345.47,-194 324.47,-194 321.47,-190 241.53,-190 241.53,-154 348.47,-154 348.47,-190"/>
<text text-anchor="middle" x="295" y="-167.8" font-family="Times,serif" font-size="14.00">BrowserModule</text>
</g>
<!-- BrowserModule&#45;&gt;AppModule -->
<g id="edge4" class="edge">
<title>BrowserModule&#45;&gt;AppModule</title>
<path fill="none" stroke="black" d="M295,-190.11C295,-190.11 295,-208.99 295,-208.99"/>
<polygon fill="black" stroke="black" points="291.5,-208.99 295,-218.99 298.5,-208.99 291.5,-208.99"/>
</g>
<!-- LoginComponent -->
<g id="node8" class="node">
<title>LoginComponent</title>
<polygon fill="#ffffb3" stroke="black" points="632.28,-122 517.72,-122 517.72,-86 632.28,-86 632.28,-122"/>
<text text-anchor="middle" x="575" y="-99.8" font-family="Times,serif" font-size="14.00">LoginComponent</text>
</g>
<!-- AuthenticationModule -->
<g id="node11" class="node">
<title>AuthenticationModule</title>
<polygon fill="#8dd3c7" stroke="black" points="892.25,-190 889.25,-194 868.25,-194 865.25,-190 749.75,-190 749.75,-154 892.25,-154 892.25,-190"/>
<text text-anchor="middle" x="821" y="-167.8" font-family="Times,serif" font-size="14.00">AuthenticationModule</text>
</g>
<!-- LoginComponent&#45;&gt;AuthenticationModule -->
<g id="edge9" class="edge">
<title>LoginComponent&#45;&gt;AuthenticationModule</title>
<path fill="none" stroke="black" d="M575,-122.22C575,-142.37 575,-172 575,-172 575,-172 739.52,-172 739.52,-172"/>
<polygon fill="black" stroke="black" points="739.52,-175.5 749.52,-172 739.52,-168.5 739.52,-175.5"/>
</g>
<!-- RegisterComponent -->
<g id="node9" class="node">
<title>RegisterComponent</title>
<polygon fill="#ffffb3" stroke="black" points="968.98,-122 841.02,-122 841.02,-86 968.98,-86 968.98,-122"/>
<text text-anchor="middle" x="905" y="-99.8" font-family="Times,serif" font-size="14.00">RegisterComponent</text>
</g>
<!-- RegisterComponent&#45;&gt;AuthenticationModule -->
<g id="edge10" class="edge">
<title>RegisterComponent&#45;&gt;AuthenticationModule</title>
<path fill="none" stroke="black" d="M866.69,-122.22C866.69,-122.22 866.69,-143.73 866.69,-143.73"/>
<polygon fill="black" stroke="black" points="863.19,-143.73 866.69,-153.73 870.19,-143.73 863.19,-143.73"/>
</g>
<!-- ForgotPasswordComponent -->
<g id="node10" class="node">
<title>ForgotPasswordComponent</title>
<polygon fill="#ffffb3" stroke="black" points="823.32,-122 650.68,-122 650.68,-86 823.32,-86 823.32,-122"/>
<text text-anchor="middle" x="737" y="-99.8" font-family="Times,serif" font-size="14.00">ForgotPasswordComponent</text>
</g>
<!-- ForgotPasswordComponent&#45;&gt;AuthenticationModule -->
<g id="edge11" class="edge">
<title>ForgotPasswordComponent&#45;&gt;AuthenticationModule</title>
<path fill="none" stroke="black" d="M786.39,-122.22C786.39,-122.22 786.39,-143.73 786.39,-143.73"/>
<polygon fill="black" stroke="black" points="782.89,-143.73 786.39,-153.73 789.89,-143.73 782.89,-143.73"/>
</g>
<!-- CommonModule -->
<g id="node12" class="node">
<title>CommonModule</title>
<polygon fill="#8dd3c7" stroke="black" points="1104.67,-122 1101.67,-126 1080.67,-126 1077.67,-122 993.33,-122 993.33,-86 1104.67,-86 1104.67,-122"/>
<text text-anchor="middle" x="1049" y="-99.8" font-family="Times,serif" font-size="14.00">CommonModule</text>
</g>
<!-- CommonModule&#45;&gt;AuthenticationModule -->
<g id="edge12" class="edge">
<title>CommonModule&#45;&gt;AuthenticationModule</title>
<path fill="none" stroke="black" d="M1082.5,-122.22C1082.5,-142.37 1082.5,-172 1082.5,-172 1082.5,-172 902.46,-172 902.46,-172"/>
<polygon fill="black" stroke="black" points="902.46,-168.5 892.46,-172 902.46,-175.5 902.46,-168.5"/>
</g>
<!-- JobsModule -->
<g id="node15" class="node">
<title>JobsModule</title>
<polygon fill="#8dd3c7" stroke="black" points="1370.44,-190 1367.44,-194 1346.44,-194 1343.44,-190 1285.56,-190 1285.56,-154 1370.44,-154 1370.44,-190"/>
<text text-anchor="middle" x="1328" y="-167.8" font-family="Times,serif" font-size="14.00">JobsModule</text>
</g>
<!-- CommonModule&#45;&gt;JobsModule -->
<g id="edge17" class="edge">
<title>CommonModule&#45;&gt;JobsModule</title>
<path fill="none" stroke="black" d="M1104.72,-98C1164.5,-98 1250.97,-98 1250.97,-98 1250.97,-98 1250.97,-172 1250.97,-172 1250.97,-172 1275.43,-172 1275.43,-172"/>
<polygon fill="black" stroke="black" points="1275.43,-175.5 1285.43,-172 1275.43,-168.5 1275.43,-175.5"/>
</g>
<!-- SharedModule -->
<g id="node16" class="node">
<title>SharedModule</title>
<polygon fill="#8dd3c7" stroke="black" points="1235.42,-190 1232.42,-194 1211.42,-194 1208.42,-190 1136.58,-190 1136.58,-154 1235.42,-154 1235.42,-190"/>
<text text-anchor="middle" x="1186" y="-167.8" font-family="Times,serif" font-size="14.00">SharedModule</text>
</g>
<!-- CommonModule&#45;&gt;SharedModule -->
<g id="edge18" class="edge">
<title>CommonModule&#45;&gt;SharedModule</title>
<path fill="none" stroke="black" d="M1104.72,-110C1142.65,-110 1186,-110 1186,-110 1186,-110 1186,-143.73 1186,-143.73"/>
<polygon fill="black" stroke="black" points="1182.5,-143.73 1186,-153.73 1189.5,-143.73 1182.5,-143.73"/>
</g>
<!-- SubmissionsModule -->
<g id="node19" class="node">
<title>SubmissionsModule</title>
<polygon fill="#8dd3c7" stroke="black" points="1734.34,-190 1731.34,-194 1710.34,-194 1707.34,-190 1603.66,-190 1603.66,-154 1734.34,-154 1734.34,-190"/>
<text text-anchor="middle" x="1669" y="-167.8" font-family="Times,serif" font-size="14.00">SubmissionsModule</text>
</g>
<!-- CommonModule&#45;&gt;SubmissionsModule -->
<g id="edge23" class="edge">
<title>CommonModule&#45;&gt;SubmissionsModule</title>
<path fill="none" stroke="black" d="M1015.5,-122.06C1015.5,-133.44 1015.5,-146 1015.5,-146 1015.5,-146 1647.28,-146 1647.28,-146 1647.28,-146 1647.28,-146.79 1647.28,-146.79"/>
<polygon fill="black" stroke="black" points="1643.78,-143.94 1647.28,-153.94 1650.78,-143.94 1643.78,-143.94"/>
</g>
<!-- UsersModule -->
<g id="node22" class="node">
<title>UsersModule</title>
<polygon fill="#8dd3c7" stroke="black" points="2105.92,-190 2102.92,-194 2081.92,-194 2078.92,-190 2014.08,-190 2014.08,-154 2105.92,-154 2105.92,-190"/>
<text text-anchor="middle" x="2060" y="-167.8" font-family="Times,serif" font-size="14.00">UsersModule</text>
</g>
<!-- CommonModule&#45;&gt;UsersModule -->
<g id="edge28" class="edge">
<title>CommonModule&#45;&gt;UsersModule</title>
<path fill="none" stroke="black" d="M1037.83,-122.19C1037.83,-130.28 1037.83,-138 1037.83,-138 1037.83,-138 2044.76,-138 2044.76,-138 2044.76,-138 2044.76,-143.81 2044.76,-143.81"/>
<polygon fill="black" stroke="black" points="2041.26,-143.81 2044.76,-153.81 2048.26,-143.81 2041.26,-143.81"/>
</g>
<!-- VendorsModule -->
<g id="node25" class="node">
<title>VendorsModule</title>
<polygon fill="#8dd3c7" stroke="black" points="2453.48,-190 2450.48,-194 2429.48,-194 2426.48,-190 2346.52,-190 2346.52,-154 2453.48,-154 2453.48,-190"/>
<text text-anchor="middle" x="2400" y="-167.8" font-family="Times,serif" font-size="14.00">VendorsModule</text>
</g>
<!-- CommonModule&#45;&gt;VendorsModule -->
<g id="edge33" class="edge">
<title>CommonModule&#45;&gt;VendorsModule</title>
<path fill="none" stroke="black" d="M1060.17,-122.06C1060.17,-126.49 1060.17,-130 1060.17,-130 1060.17,-130 2382.17,-130 2382.17,-130 2382.17,-130 2382.17,-143.94 2382.17,-143.94"/>
<polygon fill="black" stroke="black" points="2378.67,-143.94 2382.17,-153.94 2385.67,-143.94 2378.67,-143.94"/>
</g>
<!-- CreateJobComponent -->
<g id="node13" class="node">
<title>CreateJobComponent</title>
<polygon fill="#ffffb3" stroke="black" points="1544.81,-122 1407.19,-122 1407.19,-86 1544.81,-86 1544.81,-122"/>
<text text-anchor="middle" x="1476" y="-99.8" font-family="Times,serif" font-size="14.00">CreateJobComponent</text>
</g>
<!-- CreateJobComponent&#45;&gt;JobsModule -->
<g id="edge15" class="edge">
<title>CreateJobComponent&#45;&gt;JobsModule</title>
<path fill="none" stroke="black" d="M1476,-122.22C1476,-142.37 1476,-172 1476,-172 1476,-172 1380.41,-172 1380.41,-172"/>
<polygon fill="black" stroke="black" points="1380.41,-168.5 1370.41,-172 1380.41,-175.5 1380.41,-168.5"/>
</g>
<!-- ListJobComponent -->
<g id="node14" class="node">
<title>ListJobComponent</title>
<polygon fill="#ffffb3" stroke="black" points="1389.06,-122 1266.94,-122 1266.94,-86 1389.06,-86 1389.06,-122"/>
<text text-anchor="middle" x="1328" y="-99.8" font-family="Times,serif" font-size="14.00">ListJobComponent</text>
</g>
<!-- ListJobComponent&#45;&gt;JobsModule -->
<g id="edge16" class="edge">
<title>ListJobComponent&#45;&gt;JobsModule</title>
<path fill="none" stroke="black" d="M1328,-122.22C1328,-122.22 1328,-143.73 1328,-143.73"/>
<polygon fill="black" stroke="black" points="1324.5,-143.73 1328,-153.73 1331.5,-143.73 1324.5,-143.73"/>
</g>
<!-- CreateSubmissionComponent -->
<g id="node17" class="node">
<title>CreateSubmissionComponent</title>
<polygon fill="#ffffb3" stroke="black" points="1954.71,-122 1771.29,-122 1771.29,-86 1954.71,-86 1954.71,-122"/>
<text text-anchor="middle" x="1863" y="-99.8" font-family="Times,serif" font-size="14.00">CreateSubmissionComponent</text>
</g>
<!-- CreateSubmissionComponent&#45;&gt;SubmissionsModule -->
<g id="edge21" class="edge">
<title>CreateSubmissionComponent&#45;&gt;SubmissionsModule</title>
<path fill="none" stroke="black" d="M1863,-122.22C1863,-142.37 1863,-172 1863,-172 1863,-172 1744.41,-172 1744.41,-172"/>
<polygon fill="black" stroke="black" points="1744.41,-168.5 1734.41,-172 1744.41,-175.5 1744.41,-168.5"/>
</g>
<!-- ListSubmissionComponent -->
<g id="node18" class="node">
<title>ListSubmissionComponent</title>
<polygon fill="#ffffb3" stroke="black" points="1753.46,-122 1584.54,-122 1584.54,-86 1753.46,-86 1753.46,-122"/>
<text text-anchor="middle" x="1669" y="-99.8" font-family="Times,serif" font-size="14.00">ListSubmissionComponent</text>
</g>
<!-- ListSubmissionComponent&#45;&gt;SubmissionsModule -->
<g id="edge22" class="edge">
<title>ListSubmissionComponent&#45;&gt;SubmissionsModule</title>
<path fill="none" stroke="black" d="M1690.72,-122.22C1690.72,-122.22 1690.72,-143.73 1690.72,-143.73"/>
<polygon fill="black" stroke="black" points="1687.22,-143.73 1690.72,-153.73 1694.22,-143.73 1687.22,-143.73"/>
</g>
<!-- CreateUserComponent -->
<g id="node20" class="node">
<title>CreateUserComponent</title>
<polygon fill="#ffffb3" stroke="black" points="2287.29,-122 2142.71,-122 2142.71,-86 2287.29,-86 2287.29,-122"/>
<text text-anchor="middle" x="2215" y="-99.8" font-family="Times,serif" font-size="14.00">CreateUserComponent</text>
</g>
<!-- CreateUserComponent&#45;&gt;UsersModule -->
<g id="edge26" class="edge">
<title>CreateUserComponent&#45;&gt;UsersModule</title>
<path fill="none" stroke="black" d="M2215,-122.22C2215,-142.37 2215,-172 2215,-172 2215,-172 2116.09,-172 2116.09,-172"/>
<polygon fill="black" stroke="black" points="2116.09,-168.5 2106.09,-172 2116.09,-175.5 2116.09,-168.5"/>
</g>
<!-- ListUserComponent -->
<g id="node21" class="node">
<title>ListUserComponent</title>
<polygon fill="#ffffb3" stroke="black" points="2124.54,-122 1995.46,-122 1995.46,-86 2124.54,-86 2124.54,-122"/>
<text text-anchor="middle" x="2060" y="-99.8" font-family="Times,serif" font-size="14.00">ListUserComponent</text>
</g>
<!-- ListUserComponent&#45;&gt;UsersModule -->
<g id="edge27" class="edge">
<title>ListUserComponent&#45;&gt;UsersModule</title>
<path fill="none" stroke="black" d="M2075.24,-122.22C2075.24,-122.22 2075.24,-143.73 2075.24,-143.73"/>
<polygon fill="black" stroke="black" points="2071.74,-143.73 2075.24,-153.73 2078.74,-143.73 2071.74,-143.73"/>
</g>
<!-- CreateVendorComponent -->
<g id="node23" class="node">
<title>CreateVendorComponent</title>
<polygon fill="#ffffb3" stroke="black" points="2649.85,-122 2490.15,-122 2490.15,-86 2649.85,-86 2649.85,-122"/>
<text text-anchor="middle" x="2570" y="-99.8" font-family="Times,serif" font-size="14.00">CreateVendorComponent</text>
</g>
<!-- CreateVendorComponent&#45;&gt;VendorsModule -->
<g id="edge31" class="edge">
<title>CreateVendorComponent&#45;&gt;VendorsModule</title>
<path fill="none" stroke="black" d="M2570,-122.22C2570,-142.37 2570,-172 2570,-172 2570,-172 2463.79,-172 2463.79,-172"/>
<polygon fill="black" stroke="black" points="2463.79,-168.5 2453.79,-172 2463.79,-175.5 2463.79,-168.5"/>
</g>
<!-- ListVendorComponent -->
<g id="node24" class="node">
<title>ListVendorComponent</title>
<polygon fill="#ffffb3" stroke="black" points="2472.59,-122 2327.41,-122 2327.41,-86 2472.59,-86 2472.59,-122"/>
<text text-anchor="middle" x="2400" y="-99.8" font-family="Times,serif" font-size="14.00">ListVendorComponent</text>
</g>
<!-- ListVendorComponent&#45;&gt;VendorsModule -->
<g id="edge32" class="edge">
<title>ListVendorComponent&#45;&gt;VendorsModule</title>
<path fill="none" stroke="black" d="M2417.83,-122.22C2417.83,-122.22 2417.83,-143.73 2417.83,-143.73"/>
<polygon fill="black" stroke="black" points="2414.33,-143.73 2417.83,-153.73 2421.33,-143.73 2414.33,-143.73"/>
</g>
</g>
</svg>
